<svg width="1920" height="1080" viewBox="0 0 1920 1080" fill="none" xmlns="http://www.w3.org/2000/svg">
<rect width="1920" height="1080" fill="#F7F7F7"/>
<g opacity="0.1">
<circle cx="960.057" cy="540.057" r="333.057" fill="#A9A9A9"/>
<path d="M786.983 692.299V523.68H740.941V468.396H786.983V428.775C786.983 379.94 799.54 338.477 875.347 338.477C889.299 338.477 903.251 339.398 916.273 342.623L913.018 401.133C905.112 398.368 898.601 396.525 890.229 396.525C867.906 396.525 856.744 403.436 856.744 432.921V468.396H908.367V523.68H856.744V692.299H786.983Z" fill="white"/>
<path d="M920.514 657.746L949.348 635.632C963.765 653.139 979.578 664.656 1005.16 664.656C1027.95 664.656 1053.06 654.982 1053.06 631.486C1053.06 608.45 1029.81 602.461 1006.55 597.393C965.16 588.179 929.815 579.426 929.815 534.737C929.815 492.813 970.741 471.16 1011.2 471.16C1041.9 471.16 1070.27 482.678 1085.15 510.32L1054.92 530.13C1045.62 514.927 1030.27 504.331 1008.88 504.331C988.879 504.331 966.091 514.005 966.091 534.277C966.091 552.244 992.135 560.076 1020.97 565.605C1059.57 572.976 1092.12 586.797 1092.12 630.103C1092.12 678.938 1048.41 697.827 1005.16 697.827C968.416 697.827 941.907 688.152 920.514 657.746Z" fill="white"/>
<circle cx="1145.21" cy="661.089" r="28.5847" fill="white"/>
</g>
</svg>
